<?xml version="1.0" encoding="utf-8"?>
<!-- Generated by IcoMoon.io -->
<!DOCTYPE svg PUBLIC "-//W3C//DTD SVG 1.1//EN" "http://www.w3.org/Graphics/SVG/1.1/DTD/svg11.dtd">
<svg version="1.1" xmlns="http://www.w3.org/2000/svg" xmlns:xlink="http://www.w3.org/1999/xlink" width="20" height="32" viewBox="0 0 20 32">
<path d="M16 6c-2.219 0-4 1.781-4 4 0 1.469 0.813 2.75 2 3.438v0.563c0 2-2 4-4 4-1.656 0-2.969 0.344-4 0.906v-9.469c1.188-0.688 2-1.969 2-3.438 0-2.219-1.781-4-4-4s-4 1.781-4 4c0 1.469 0.813 2.75 2 3.438v13.094c-1.188 0.688-2 1.969-2 3.438 0 2.219 1.781 4 4 4s4-1.781 4-4c0-1.063-0.406-2-1.063-2.719 0.594-0.719 1.531-1.281 3.063-1.281 4 0 8-4 8-8v-0.563c1.188-0.688 2-1.969 2-3.438 0-2.219-1.781-4-4-4zM4 4c1.094 0 2 0.906 2 2s-0.906 2-2 2-2-0.906-2-2 0.906-2 2-2zM4 28c-1.094 0-2-0.906-2-2s0.906-2 2-2 2 0.906 2 2-0.906 2-2 2zM16 12c-1.094 0-2-0.906-2-2s0.906-2 2-2 2 0.906 2 2-0.906 2-2 2z"></path>
</svg>
