<?xml version="1.0" encoding="utf-8"?>
<!-- Generated by IcoMoon.io -->
<!DOCTYPE svg PUBLIC "-//W3C//DTD SVG 1.1//EN" "http://www.w3.org/Graphics/SVG/1.1/DTD/svg11.dtd">
<svg version="1.1" xmlns="http://www.w3.org/2000/svg" xmlns:xlink="http://www.w3.org/1999/xlink" width="32" height="32" viewBox="0 0 32 32">
<path d="M29.4 8.678c0.258-0.632 1.105-3.18-0.268-6.622 0 0-2.105-0.666-6.871 2.591-1.996-0.549-4.141-0.631-6.262-0.631s-4.264 0.082-6.266 0.633c-4.765-3.259-6.868-2.593-6.868-2.593-1.372 3.444-0.524 5.99-0.267 6.622-1.615 1.746-2.6 3.975-2.6 6.708 0 10.288 6.664 12.614 15.964 12.614 9.304 0 16.036-2.326 16.036-12.614 0-2.733-0.984-4.962-2.6-6.708zM16 26.031c-6.606 0-11.962-0.309-11.962-6.709 0-1.529 0.752-2.956 2.042-4.135 2.148-1.968 5.79-0.928 9.92-0.928 4.133 0 7.77-1.040 9.92 0.926 1.291 1.181 2.045 2.604 2.045 4.135-0 6.402-5.359 6.711-11.965 6.711zM10.974 16.014c-1.327 0-2.403 1.596-2.403 3.568s1.076 3.572 2.403 3.572c1.324 0 2.4-1.6 2.4-3.572s-1.076-3.568-2.4-3.568zM21.027 16.014c-1.324 0-2.402 1.596-2.402 3.568s1.078 3.572 2.402 3.572 2.4-1.6 2.4-3.572c0.002-1.973-1.074-3.568-2.4-3.568z"></path>
</svg>
